<mxfile host="65bd71144e">
    <diagram id="7rvGE-02oJ3TBXRTqlfE" name="Page-1">
        <mxGraphModel dx="525" dy="505" grid="1" gridSize="10" guides="1" tooltips="1" connect="1" arrows="1" fold="1" page="1" pageScale="1" pageWidth="827" pageHeight="1169" math="0" shadow="0">
            <root>
                <mxCell id="0"/>
                <mxCell id="1" parent="0"/>
                <mxCell id="z3jRuaDt9x_Too_vMhTu-9" value="" style="edgeStyle=orthogonalEdgeStyle;rounded=0;orthogonalLoop=1;jettySize=auto;html=1;" parent="1" source="z3jRuaDt9x_Too_vMhTu-1" target="z3jRuaDt9x_Too_vMhTu-2" edge="1">
                    <mxGeometry relative="1" as="geometry"/>
                </mxCell>
                <mxCell id="z3jRuaDt9x_Too_vMhTu-1" value="Start" style="ellipse;whiteSpace=wrap;html=1;" parent="1" vertex="1">
                    <mxGeometry x="260" y="70" width="120" height="50" as="geometry"/>
                </mxCell>
                <mxCell id="z3jRuaDt9x_Too_vMhTu-10" value="" style="edgeStyle=orthogonalEdgeStyle;rounded=0;orthogonalLoop=1;jettySize=auto;html=1;" parent="1" source="z3jRuaDt9x_Too_vMhTu-2" target="z3jRuaDt9x_Too_vMhTu-3" edge="1">
                    <mxGeometry relative="1" as="geometry"/>
                </mxCell>
                <mxCell id="z3jRuaDt9x_Too_vMhTu-2" value="&lt;div&gt;array [ ]&lt;/div&gt;&lt;div&gt;size = array.Length&lt;br&gt;&lt;/div&gt;&lt;div&gt;newarray [ size ]&lt;br&gt;&lt;/div&gt;&lt;div&gt;i = 0&lt;br&gt;&lt;/div&gt;" style="rounded=0;whiteSpace=wrap;html=1;" parent="1" vertex="1">
                    <mxGeometry x="210" y="159" width="220" height="81" as="geometry"/>
                </mxCell>
                <mxCell id="z3jRuaDt9x_Too_vMhTu-11" value="" style="edgeStyle=orthogonalEdgeStyle;rounded=0;orthogonalLoop=1;jettySize=auto;html=1;" parent="1" source="z3jRuaDt9x_Too_vMhTu-3" target="z3jRuaDt9x_Too_vMhTu-4" edge="1">
                    <mxGeometry relative="1" as="geometry"/>
                </mxCell>
                <mxCell id="z3jRuaDt9x_Too_vMhTu-18" style="edgeStyle=orthogonalEdgeStyle;rounded=0;orthogonalLoop=1;jettySize=auto;html=1;entryX=0;entryY=0.5;entryDx=0;entryDy=0;" parent="1" source="z3jRuaDt9x_Too_vMhTu-3" target="z3jRuaDt9x_Too_vMhTu-16" edge="1">
                    <mxGeometry relative="1" as="geometry"/>
                </mxCell>
                <mxCell id="z3jRuaDt9x_Too_vMhTu-3" value="i &amp;lt; size" style="rhombus;whiteSpace=wrap;html=1;" parent="1" vertex="1">
                    <mxGeometry x="280" y="280" width="80" height="80" as="geometry"/>
                </mxCell>
                <mxCell id="z3jRuaDt9x_Too_vMhTu-12" value="" style="edgeStyle=orthogonalEdgeStyle;rounded=0;orthogonalLoop=1;jettySize=auto;html=1;" parent="1" source="z3jRuaDt9x_Too_vMhTu-4" target="z3jRuaDt9x_Too_vMhTu-6" edge="1">
                    <mxGeometry relative="1" as="geometry"/>
                </mxCell>
                <mxCell id="z3jRuaDt9x_Too_vMhTu-14" style="edgeStyle=orthogonalEdgeStyle;rounded=0;orthogonalLoop=1;jettySize=auto;html=1;entryX=1;entryY=0.5;entryDx=0;entryDy=0;" parent="1" source="z3jRuaDt9x_Too_vMhTu-4" target="z3jRuaDt9x_Too_vMhTu-8" edge="1">
                    <mxGeometry relative="1" as="geometry">
                        <Array as="points">
                            <mxPoint x="440" y="440"/>
                            <mxPoint x="440" y="620"/>
                        </Array>
                    </mxGeometry>
                </mxCell>
                <mxCell id="z3jRuaDt9x_Too_vMhTu-4" value="array [ i ] . Length &amp;lt;= 3" style="rhombus;whiteSpace=wrap;html=1;" parent="1" vertex="1">
                    <mxGeometry x="240" y="400" width="160" height="80" as="geometry"/>
                </mxCell>
                <mxCell id="z3jRuaDt9x_Too_vMhTu-13" value="" style="edgeStyle=orthogonalEdgeStyle;rounded=0;orthogonalLoop=1;jettySize=auto;html=1;" parent="1" source="z3jRuaDt9x_Too_vMhTu-6" target="z3jRuaDt9x_Too_vMhTu-8" edge="1">
                    <mxGeometry relative="1" as="geometry"/>
                </mxCell>
                <mxCell id="z3jRuaDt9x_Too_vMhTu-6" value="newarray [ i ] = array [ i ]" style="rounded=0;whiteSpace=wrap;html=1;" parent="1" vertex="1">
                    <mxGeometry x="240" y="520" width="160" height="40" as="geometry"/>
                </mxCell>
                <mxCell id="z3jRuaDt9x_Too_vMhTu-15" style="edgeStyle=orthogonalEdgeStyle;rounded=0;orthogonalLoop=1;jettySize=auto;html=1;entryX=0;entryY=0.5;entryDx=0;entryDy=0;" parent="1" source="z3jRuaDt9x_Too_vMhTu-8" target="z3jRuaDt9x_Too_vMhTu-3" edge="1">
                    <mxGeometry relative="1" as="geometry">
                        <Array as="points">
                            <mxPoint x="200" y="620"/>
                            <mxPoint x="200" y="320"/>
                        </Array>
                    </mxGeometry>
                </mxCell>
                <mxCell id="z3jRuaDt9x_Too_vMhTu-8" value="i = i + 1" style="rounded=0;whiteSpace=wrap;html=1;" parent="1" vertex="1">
                    <mxGeometry x="240" y="600" width="160" height="40" as="geometry"/>
                </mxCell>
                <mxCell id="z3jRuaDt9x_Too_vMhTu-19" style="edgeStyle=orthogonalEdgeStyle;rounded=0;orthogonalLoop=1;jettySize=auto;html=1;entryX=0.5;entryY=0;entryDx=0;entryDy=0;" parent="1" source="z3jRuaDt9x_Too_vMhTu-16" target="z3jRuaDt9x_Too_vMhTu-17" edge="1">
                    <mxGeometry relative="1" as="geometry"/>
                </mxCell>
                <mxCell id="z3jRuaDt9x_Too_vMhTu-16" value="newarray" style="shape=document;whiteSpace=wrap;html=1;boundedLbl=1;" parent="1" vertex="1">
                    <mxGeometry x="520" y="290" width="120" height="60" as="geometry"/>
                </mxCell>
                <mxCell id="z3jRuaDt9x_Too_vMhTu-17" value="End" style="ellipse;whiteSpace=wrap;html=1;" parent="1" vertex="1">
                    <mxGeometry x="520" y="400" width="120" height="50" as="geometry"/>
                </mxCell>
                <mxCell id="z3jRuaDt9x_Too_vMhTu-20" value="yes" style="text;html=1;strokeColor=none;fillColor=none;align=center;verticalAlign=middle;whiteSpace=wrap;rounded=0;" parent="1" vertex="1">
                    <mxGeometry x="310" y="360" width="60" height="30" as="geometry"/>
                </mxCell>
                <mxCell id="z3jRuaDt9x_Too_vMhTu-21" value="yes" style="text;html=1;strokeColor=none;fillColor=none;align=center;verticalAlign=middle;whiteSpace=wrap;rounded=0;" parent="1" vertex="1">
                    <mxGeometry x="310" y="480" width="60" height="30" as="geometry"/>
                </mxCell>
                <mxCell id="z3jRuaDt9x_Too_vMhTu-22" value="no" style="text;html=1;strokeColor=none;fillColor=none;align=center;verticalAlign=middle;whiteSpace=wrap;rounded=0;" parent="1" vertex="1">
                    <mxGeometry x="340" y="290" width="60" height="30" as="geometry"/>
                </mxCell>
                <mxCell id="z3jRuaDt9x_Too_vMhTu-23" value="no" style="text;html=1;strokeColor=none;fillColor=none;align=center;verticalAlign=middle;whiteSpace=wrap;rounded=0;" parent="1" vertex="1">
                    <mxGeometry x="384" y="410" width="60" height="30" as="geometry"/>
                </mxCell>
            </root>
        </mxGraphModel>
    </diagram>
</mxfile>